# xmcd
#
# Track frame offsets:
#	150
#	14712
#	26025
#	40002
#	50935
#	63060
#	76607
#	98387
#	111785
#	126567
#
# Disc length: 1910
#
# Revision: 2
# Processed by: cddbd v1.5.1PL0 Copyright (c) Steve Scherf et al.
# Submitted via: ExactAudioCopy v0.90a11
# Normalized: r0:DSETVAR1,TDELIM( - ),TSWAP
#
DISCID=7b07740a
DTITLE=Various Artist - Double Barrel Country - Willie Nelson and Waylon Jennings
DYEAR=1900
DGENRE=
TTITLE0=Willie Nelson - Sweet Memories
TTITLE1=Willie Nelson - Crazy Arms
TTITLE2=Willie Nelson - If You Can Touch Her At All
TTITLE3=Willie Nelson - Night Life
TTITLE4=Willie Nelson - Funny How Time Slips Away
TTITLE5=Waylon Jennings and Willie Nelson - Good Harted Woman
TTITLE6=Waylon Jennings - I Ain't Living Long Like This
TTITLE7=Waylon Jennings - Amanda
TTITLE8=Waylon Jennings - Luckenbach, Texas (Back To The Basics Of Love)
TTITLE9=Waylon Jennings and Jessi Colter - Suspicious Minds
EXTD=
EXTT0=
EXTT1=
EXTT2=
EXTT3=
EXTT4=
EXTT5=
EXTT6=
EXTT7=
EXTT8=
EXTT9=
PLAYORDER=
